<svg id="HEADER" xmlns="http://www.w3.org/2000/svg" viewBox="0 0 132.79 69.21"><defs><style>.cls-1{fill:#f1f4f5;}</style></defs><title>gsc_logo</title><path class="cls-1" d="M2622.49,103a8.42,8.42,0,0,0,6.1,2.58c2.24,0,3.34-1,3.34-2.12,0-1.41-1.78-1.81-3.88-2.33-3.14-.72-7.16-1.58-7.16-5.94,0-3.19,2.76-5.83,7.28-5.83a10.68,10.68,0,0,1,7.48,2.67l-2.27,3a8.25,8.25,0,0,0-5.58-2.1c-1.75,0-2.73.78-2.73,1.92s1.75,1.64,3.83,2.12c3.16,0.75,7.19,1.69,7.19,6,0,3.5-2.5,6.14-7.68,6.14a11,11,0,0,1-8.11-3Z" transform="translate(-2618.61 -63.64)"/><path class="cls-1" d="M2637.6,99.23c0-5.89,4.46-9.91,10.21-9.91a8.79,8.79,0,0,1,8,4.68l-3.51,1.72a5.2,5.2,0,0,0-4.52-2.79,6.29,6.29,0,0,0,0,12.58,5.15,5.15,0,0,0,4.52-2.79l3.51,1.69a8.84,8.84,0,0,1-8,4.71c-5.75,0-10.21-4-10.21-9.91" transform="translate(-2618.61 -63.64)"/><rect class="cls-1" x="39.77" y="25.96" width="4.09" height="19.15"/><polygon class="cls-1" points="47.01 26 60.58 26 60.58 29.59 51.09 29.59 51.09 33.63 60.38 33.63 60.38 37.22 51.09 37.22 51.09 41.56 60.58 41.56 60.58 45.15 47.01 45.15 47.01 26"/><polygon class="cls-1" points="67.78 32.66 67.78 45.15 63.7 45.15 63.7 26 67.9 26 76.79 38.03 76.79 26 80.88 26 80.88 45.15 76.93 45.15 67.78 32.66"/><path class="cls-1" d="M2701.63,99.23c0-5.89,4.46-9.91,10.21-9.91a8.78,8.78,0,0,1,8,4.68l-3.51,1.72a5.2,5.2,0,0,0-4.52-2.79,6.29,6.29,0,0,0,0,12.58,5.15,5.15,0,0,0,4.52-2.79l3.51,1.69a8.84,8.84,0,0,1-8,4.71c-5.75,0-10.21-4-10.21-9.91" transform="translate(-2618.61 -63.64)"/><polygon class="cls-1" points="103.71 26 117.29 26 117.29 29.59 107.79 29.59 107.79 33.63 117.08 33.63 117.08 37.22 107.79 37.22 107.79 41.56 117.29 41.56 117.29 45.15 103.71 45.15 103.71 26"/><path class="cls-1" d="M2618.61,122c0-6.44,4.88-10.83,11.17-10.83a9.61,9.61,0,0,1,8.78,5.12l-3.84,1.88a5.69,5.69,0,0,0-4.94-3,6.88,6.88,0,0,0,0,13.75,5.63,5.63,0,0,0,4.94-3l3.84,1.85a9.67,9.67,0,0,1-8.78,5.15c-6.29,0-11.17-4.4-11.17-10.83" transform="translate(-2618.61 -63.64)"/><polygon class="cls-1" points="22.62 47.89 37.47 47.89 37.47 51.82 27.09 51.82 27.09 56.24 37.25 56.24 37.25 60.17 27.09 60.17 27.09 64.91 37.47 64.91 37.47 68.84 22.62 68.84 22.62 47.89"/><polygon class="cls-1" points="45.43 55.18 45.43 68.84 40.96 68.84 40.96 47.89 45.56 47.89 55.28 61.05 55.28 47.89 59.74 47.89 59.74 68.84 55.44 68.84 45.43 55.18"/><polygon class="cls-1" points="68.74 51.82 62.61 51.82 62.61 47.89 79.34 47.89 79.34 51.82 73.24 51.82 73.24 68.84 68.74 68.84 68.74 51.82"/><path class="cls-1" d="M2710,115.46h-4.69v5.65H2710a2.84,2.84,0,1,0,0-5.65m-1.42,9.58h-3.27v7.44h-4.47V111.54h9.82c4.37,0,7,2.86,7,6.75a6,6,0,0,1-4.59,6.22l4.72,8h-5.13Z" transform="translate(-2618.61 -63.64)"/><polygon class="cls-1" points="102.44 47.89 117.29 47.89 117.29 51.82 106.91 51.82 106.91 56.24 117.07 56.24 117.07 60.17 106.91 60.17 106.91 64.91 117.29 64.91 117.29 68.84 102.44 68.84 102.44 47.89"/><path class="cls-1" d="M2740.45,127.29a5.55,5.55,0,0,1,.42-2.14,5.25,5.25,0,0,1,2.91-2.91,5.72,5.72,0,0,1,4.28,0,5.25,5.25,0,0,1,2.91,2.91,5.69,5.69,0,0,1,0,4.27,5.26,5.26,0,0,1-2.91,2.91,5.73,5.73,0,0,1-4.28,0,5.26,5.26,0,0,1-2.91-2.91,5.55,5.55,0,0,1-.42-2.14" transform="translate(-2618.61 -63.64)"/><path class="cls-1" d="M2723.36,87s1.6-15.37,8.91-15.37c0,0,10.73-1.48,10.08,48.34,0,0,2.75-1.94,7,0,0,0-1-56.27-16.37-56.27,0,0-6.8-1.11-10.74,23.3h1.11Z" transform="translate(-2618.61 -63.64)"/><path class="cls-1" d="M2652.07,76.26a5,5,0,0,1,4.09,2l-1,.65a3.89,3.89,0,0,0-3-1.45,4.29,4.29,0,0,0,0,8.56,4.16,4.16,0,0,0,2.83-1.14V82.71h-3.62V81.54h4.93v3.8a5.49,5.49,0,0,1-4.14,1.81,5.45,5.45,0,0,1,0-10.9" transform="translate(-2618.61 -63.64)"/><polygon class="cls-1" points="39.74 12.79 41.05 12.79 41.05 22.14 45.95 22.14 45.95 23.3 39.74 23.3 39.74 12.79"/><path class="cls-1" d="M2668.13,83.45h4.47l-2.23-5.66Zm4.87,1.17h-5.25l-0.93,2.33h-1.5l4.23-10.52h1.63l4.25,10.52h-1.5Z" transform="translate(-2618.61 -63.64)"/><path class="cls-1" d="M2676.72,84.47A4.46,4.46,0,0,0,2680,86c1.88,0,2.48-1,2.48-1.81,0-1.26-1.28-1.61-2.67-2-1.69-.44-3.57-0.91-3.57-3,0-1.73,1.55-2.92,3.62-2.92a5,5,0,0,1,3.74,1.47l-0.79,1a4,4,0,0,0-3-1.26c-1.26,0-2.16.68-2.16,1.67s1.22,1.37,2.56,1.73c1.72,0.46,3.68,1,3.68,3.2,0,1.53-1,3.09-3.89,3.09a5.22,5.22,0,0,1-4-1.67Z" transform="translate(-2618.61 -63.64)"/><path class="cls-1" d="M2690.83,76.26a5,5,0,0,1,4.09,2l-1,.65a3.89,3.89,0,0,0-3-1.45,4.29,4.29,0,0,0,0,8.56,4.16,4.16,0,0,0,2.83-1.14V82.71H2690V81.54H2695v3.8a5.49,5.49,0,0,1-4.14,1.81,5.45,5.45,0,0,1,0-10.9" transform="translate(-2618.61 -63.64)"/><path class="cls-1" d="M2701.91,77.42c-2.37,0-3.87,1.81-3.87,4.27s1.5,4.27,3.87,4.27,3.87-1.83,3.87-4.27-1.52-4.27-3.87-4.27m0-1.17a5.44,5.44,0,1,1-5.23,5.44,5.14,5.14,0,0,1,5.23-5.44" transform="translate(-2618.61 -63.64)"/><polygon class="cls-1" points="96 14.82 93.68 23.3 92.26 23.3 89.26 12.79 90.71 12.79 93.05 21.55 95.47 12.79 96.56 12.79 98.97 21.55 101.3 12.79 102.75 12.79 99.75 23.3 98.33 23.3 96 14.82"/></svg>